<?xml version="1.0" standalone="no"?>
<!DOCTYPE svg PUBLIC "-//W3C//DTD SVG 20010904//EN"
 "http://www.w3.org/TR/2001/REC-SVG-20010904/DTD/svg10.dtd">
<svg version="1.0" xmlns="http://www.w3.org/2000/svg"
 width="600.000000pt" height="600.000000pt" viewBox="0 0 600.000000 600.000000"
 preserveAspectRatio="xMidYMid meet">

<g transform="translate(0.000000,600.000000) scale(0.100000,-0.100000)"
fill="#000000" stroke="none">
<path d="M2894 5510 c-163 -33 -328 -140 -549 -357 -83 -81 -124 -134 -238
-304 -76 -114 -147 -231 -159 -260 -16 -43 -23 -94 -32 -254 -6 -110 -11 -263
-11 -340 0 -133 1 -142 25 -175 14 -20 50 -93 80 -163 39 -90 57 -122 63 -112
14 27 36 166 46 301 12 150 34 224 82 270 25 24 38 29 78 28 l47 0 -19 75
c-15 59 -20 112 -21 236 -1 167 7 210 55 306 25 51 105 136 154 164 97 57 407
100 660 92 329 -12 531 -88 697 -265 116 -124 180 -293 197 -521 7 -85 15
-121 40 -181 45 -106 71 -205 71 -275 1 -49 3 -56 12 -41 13 23 5 211 -17 416
-8 74 -15 175 -15 223 0 131 -48 247 -153 371 -39 46 -44 62 -92 279 -15 69
-23 86 -67 135 -119 134 -118 134 -289 211 -90 41 -197 85 -237 98 -145 46
-305 63 -408 43z"/>
<path d="M2880 4223 c-88 -9 -241 -48 -305 -77 -79 -37 -149 -104 -160 -155
-4 -18 -5 -34 -3 -36 2 -2 24 5 48 17 25 11 88 31 140 44 153 40 295 33 421
-20 20 -9 86 46 100 81 13 34 -5 69 -48 96 -39 25 -129 58 -147 55 -6 0 -27
-3 -46 -5z"/>
<path d="M3551 4188 c-41 -14 -101 -69 -101 -93 0 -9 16 -33 35 -52 28 -28 40
-34 58 -28 106 33 126 36 218 32 72 -4 118 -13 185 -36 48 -16 90 -28 92 -26
10 10 -11 57 -38 88 -71 82 -342 151 -449 115z"/>
<path d="M2820 3883 c-67 -25 -81 -103 -28 -148 25 -21 38 -25 62 -21 40 8 76
49 76 86 0 52 -65 100 -110 83z"/>
<path d="M3690 3883 c-66 -25 -81 -103 -29 -147 17 -14 42 -26 56 -26 35 0 83
51 83 89 0 53 -64 102 -110 84z"/>
<path d="M1930 2074 c-72 -136 -597 -523 -1300 -957 -220 -135 -259 -173 -333
-322 -77 -155 -107 -306 -114 -583 l-6 -202 2822 0 c2444 0 2821 2 2821 14 0
74 -65 285 -131 422 -134 282 -429 619 -671 770 -112 69 -342 187 -533 273
-220 99 -799 331 -826 331 -11 0 -4 -20 39 -109 27 -57 36 -90 40 -147 l5 -73
-55 -54 c-42 -43 -68 -59 -123 -78 -167 -57 -447 -16 -767 112 -399 159 -692
373 -807 590 -18 32 -33 59 -34 59 -1 0 -13 -21 -27 -46z"/>
</g>
</svg>
