<?xml version="1.0" standalone="no"?>
<!DOCTYPE svg PUBLIC "-//W3C//DTD SVG 20010904//EN"
 "http://www.w3.org/TR/2001/REC-SVG-20010904/DTD/svg10.dtd">
<svg version="1.0" xmlns="http://www.w3.org/2000/svg"
 width="1000.000000pt" height="1080.000000pt" viewBox="0 0 1000.000000 1080.000000"
 preserveAspectRatio="xMidYMid meet">

<g transform="translate(0.000000,1080.000000) scale(0.100000,-0.100000)"
fill="#000000" stroke="none">
<path d="M5237 10084 c-4 -4 -7 -22 -7 -40 0 -31 -3 -33 -37 -36 -52 -4 -56
-28 -4 -28 40 0 40 0 43 -42 2 -30 8 -43 18 -43 10 0 16 13 18 43 3 42 3 42
43 42 52 0 48 24 -4 28 -33 3 -36 6 -39 39 -3 35 -17 51 -31 37z"/>
<path d="M6175 10001 c-50 -23 -99 -74 -120 -125 -16 -37 -18 -38 -54 -32 -93
14 -233 -38 -308 -116 -106 -110 -136 -282 -73 -425 22 -49 97 -133 149 -166
l36 -22 -191 -5 c-187 -5 -191 -6 -232 -32 -61 -41 -97 -109 -97 -183 1 -91
42 -157 125 -201 33 -18 73 -19 703 -22 666 -3 667 -3 667 18 0 20 -2 20 -657
20 -649 0 -657 0 -701 21 -90 44 -128 159 -80 247 13 24 26 44 31 43 4 -1 16
8 26 18 11 11 37 24 58 30 25 7 259 11 681 11 561 0 642 2 642 15 0 13 -45 15
-326 17 l-327 3 51 33 c126 81 192 241 162 387 -13 65 -49 143 -74 164 -22 19
-20 28 9 35 62 16 235 89 235 99 0 7 -19 24 -43 38 -120 75 -272 69 -361 -15
-15 -15 -30 -25 -32 -24 -2 2 6 23 18 47 23 47 82 96 129 106 31 7 41 35 12
35 -10 0 -36 -9 -58 -19z m243 -136 c23 -10 42 -20 42 -24 0 -14 -209 -83
-268 -88 -64 -6 -112 1 -112 17 0 16 62 80 92 96 66 34 158 34 246 -1z m-438
-86 c0 -41 15 -66 50 -84 37 -19 117 -19 154 0 26 14 31 14 48 -1 28 -26 67
-113 79 -177 20 -111 -24 -232 -114 -312 -152 -137 -401 -109 -515 58 -112
161 -66 400 95 494 62 36 111 52 161 53 40 0 42 -1 42 -31z m60 -11 c0 -39 -1
-41 -16 -26 -11 11 -14 25 -10 42 10 40 26 31 26 -16z m109 -54 c2 -2 -16 -4
-42 -4 -25 0 -49 5 -52 11 -5 7 8 8 41 3 27 -3 51 -8 53 -10z"/>
<path d="M5730 9690 c-11 -11 -20 -27 -20 -35 0 -21 36 -55 58 -55 11 0 26 8
35 18 50 55 -21 124 -73 72z m57 -26 c8 -21 -13 -42 -28 -27 -13 13 -5 43 11
43 6 0 13 -7 17 -16z"/>
<path d="M3581 9849 c-61 -30 -91 -61 -127 -129 -18 -32 -19 -68 -22 -468 -3
-497 -2 -510 71 -589 47 -51 97 -80 156 -89 l41 -7 0 -110 0 -111 55 54 55 54
50 -49 50 -49 0 54 0 54 40 -39 40 -39 0 92 0 92 230 0 230 0 0 655 0 655
-403 0 -404 0 -62 -31z m487 -622 l2 -617 -210 0 c-233 0 -257 5 -319 63 -71
68 -71 61 -71 552 0 413 2 443 20 483 10 23 32 54 47 68 60 56 74 59 288 64
110 3 209 5 220 4 20 -1 20 -8 23 -617z m152 -2 l0 -625 -55 0 -55 0 0 625 0
625 55 0 55 0 0 -625z m198 1 l2 -616 -80 0 -80 0 0 613 c0 338 2 616 4 618 2
2 37 3 78 2 l73 -1 3 -616z m-538 -728 l0 -72 -35 34 -35 34 -33 -32 c-18 -18
-36 -32 -40 -32 -4 0 -7 32 -7 70 l0 70 75 0 75 0 0 -72z m72 22 c1 -28 1 -50
0 -50 -2 0 -12 10 -23 23 -25 30 -25 77 0 77 16 0 20 -9 23 -50z"/>
<path d="M3553 9654 c-2 -6 -3 -49 -1 -95 l3 -84 203 -3 202 -2 0 90 c0 49 -1
92 -2 95 -6 12 -400 10 -405 -1z m372 -84 l0 -55 -167 -3 -168 -2 0 60 0 60
168 -2 167 -3 0 -55z"/>
<path d="M4654 9859 c-17 -19 -19 -42 -22 -280 -2 -167 1 -259 7 -259 6 0 11
-117 14 -322 3 -275 6 -331 21 -375 10 -29 23 -53 30 -53 7 0 22 31 34 68 21
64 22 87 22 375 0 169 3 307 8 307 4 0 7 107 6 237 0 223 0 227 5 69 4 -122 9
-171 19 -174 9 -3 12 39 12 187 0 160 -2 191 -15 191 -8 0 -25 11 -39 25 -31
31 -76 33 -102 4z m76 -19 c11 -7 5 -10 -23 -10 -23 0 -36 4 -32 10 8 13 35
13 55 0z m10 -232 l0 -188 -35 0 -35 0 0 189 0 188 35 -1 35 -1 0 -187z m0
-238 c0 -16 -7 -20 -35 -20 -28 0 -35 4 -35 20 0 16 7 20 35 20 28 0 35 -4 35
-20z m-10 -340 l0 -290 -25 0 -25 0 0 290 0 290 25 0 25 0 0 -290z m-10 -342
c0 -7 -4 -19 -9 -26 -7 -11 -10 -10 -15 3 -10 26 -7 35 9 35 8 0 15 -6 15 -12z"/>
<path d="M3120 9411 c0 -30 4 -41 16 -41 11 0 14 9 12 37 -4 52 -28 56 -28 4z"/>
<path d="M3042 9363 c-18 -7 4 -33 28 -33 35 0 52 11 39 26 -11 14 -42 17 -67
7z"/>
<path d="M3155 9360 c-11 -18 10 -32 41 -28 40 4 38 32 -3 36 -17 2 -34 -2
-38 -8z"/>
<path d="M3120 9289 c0 -52 24 -48 28 4 2 28 -1 37 -12 37 -12 0 -16 -11 -16
-41z"/>
<path d="M7030 9318 c0 -16 -11 -18 -89 -18 -82 0 -116 -9 -92 -25 6 -3 134
-8 286 -12 l277 -6 -4 24 -3 24 -180 3 c-126 2 -182 7 -187 15 -5 8 -8 6 -8
-5z"/>
<path d="M7178 9323 c34 -2 90 -2 125 0 34 2 6 3 -63 3 -69 0 -97 -1 -62 -3z"/>
<path d="M5112 9283 c2 -21 8 -38 13 -38 6 0 11 17 13 38 3 29 0 37 -13 37
-13 0 -16 -8 -13 -37z"/>
<path d="M2470 9160 l0 -110 -27 0 c-27 0 -29 -3 -62 -135 -60 -244 -56 -235
-102 -235 -28 0 -39 -4 -39 -15 0 -10 11 -15 35 -15 19 0 35 -2 35 -4 0 -2
-33 -128 -74 -280 -64 -239 -78 -280 -100 -297 -27 -22 -34 -57 -14 -77 9 -9
8 -22 -1 -54 -7 -24 -14 -50 -17 -60 -3 -12 5 -19 30 -28 33 -10 34 -12 28
-52 -4 -31 -2 -40 8 -36 9 3 58 170 132 444 64 241 118 440 118 442 1 10 20
-1 20 -13 0 -9 9 -15 25 -15 18 0 25 -5 25 -20 0 -17 7 -20 45 -20 38 0 45 3
45 20 0 15 7 20 25 20 16 0 25 6 25 16 0 9 5 14 12 12 6 -2 60 -185 119 -407
59 -221 113 -409 120 -417 6 -8 17 -14 25 -14 7 0 14 -10 16 -22 2 -13 10 -23
18 -23 8 0 14 7 12 15 -2 8 2 31 8 50 10 31 6 54 -30 190 -23 85 -44 163 -46
173 -4 12 0 17 16 17 18 0 21 4 16 23 -3 12 -13 52 -23 89 -15 60 -19 67 -39
62 -19 -5 -23 4 -53 117 -18 67 -35 128 -38 135 -4 10 4 14 31 14 25 0 36 4
36 15 0 11 -11 15 -38 15 l-39 0 -46 170 c-26 93 -44 176 -41 185 5 12 -2 15
-30 15 l-36 0 0 110 0 110 -65 0 -65 0 0 -110z m50 45 c0 -24 5 -35 15 -35 10
0 15 11 15 35 0 19 5 35 10 35 6 0 10 -39 10 -96 l0 -95 -32 3 -33 3 -3 93
c-2 59 1 92 8 92 5 0 10 -16 10 -35z m110 -202 c0 -10 -7 -92 -15 -183 -8 -91
-15 -166 -15 -168 0 -2 -4 0 -10 3 -5 3 -10 28 -10 56 l0 49 -45 0 -45 0 0
-49 c0 -28 -4 -53 -10 -56 -5 -3 -10 0 -10 7 0 7 -7 87 -15 178 -8 91 -15 168
-15 173 0 4 43 7 95 7 84 0 95 -2 95 -17z m-305 -568 c-53 -198 -108 -404
-122 -457 -17 -63 -31 -98 -40 -98 -19 0 -17 17 22 158 19 70 76 280 126 467
49 187 93 347 97 355 4 9 8 -2 10 -25 2 -28 -27 -153 -93 -400z m546 -338 c27
-103 52 -194 56 -202 3 -10 -1 -15 -13 -15 -16 0 -28 34 -78 223 -32 122 -88
329 -123 461 -51 187 -63 246 -58 275 8 38 2 58 216 -742z m-321 568 c0 -42
-3 -55 -15 -55 -12 0 -15 13 -15 55 0 42 3 55 15 55 12 0 15 -13 15 -55z m319
-371 c17 -65 6 -67 -13 -3 -19 61 -19 62 -7 55 5 -3 14 -27 20 -52z"/>
<path d="M5030 9225 c0 -13 8 -16 38 -13 20 2 37 8 37 13 0 6 -17 11 -37 13
-30 3 -38 0 -38 -13z"/>
<path d="M5147 9234 c-13 -13 5 -24 39 -24 24 0 34 5 34 15 0 10 -10 15 -33
15 -19 0 -37 -3 -40 -6z"/>
<path d="M5116 9203 c-3 -3 -6 -21 -6 -40 0 -23 5 -33 15 -33 10 0 15 10 15
34 0 34 -11 52 -24 39z"/>
<path d="M7120 9145 c0 -13 26 -15 175 -15 149 0 175 2 175 15 0 13 -26 15
-175 15 -149 0 -175 -2 -175 -15z"/>
<path d="M5650 9050 c-184 -5 -211 -10 -239 -44 -8 -9 -18 -13 -24 -9 -5 3 -7
1 -4 -4 4 -6 0 -28 -9 -48 -22 -53 -10 -108 33 -156 20 -22 50 -43 71 -49 28
-7 770 -14 1280 -10 15 0 22 6 22 20 0 15 -7 20 -25 20 l-25 0 0 125 0 125 25
0 c16 0 25 6 25 15 0 13 -45 15 -347 15 -192 0 -404 2 -473 3 -69 1 -208 0
-310 -3z m-144 -277 c-2 -2 -18 3 -36 12 -38 20 -70 70 -70 110 0 42 34 94 73
110 l32 13 3 -120 c1 -66 1 -123 -2 -125z m1194 217 l0 -30 -337 -2 c-293 -3
-338 -5 -338 -18 0 -13 45 -15 338 -18 l337 -2 0 -30 0 -30 -470 0 c-411 0
-470 -2 -470 -15 0 -13 59 -15 470 -15 l470 0 0 -30 0 -30 -577 2 -578 3 -3
109 c-1 61 0 116 2 123 4 11 115 13 581 13 l575 0 0 -30z"/>
<path d="M5090 7440 l0 -1060 -90 0 -90 0 0 -130 0 -130 1805 0 1805 0 0 130
0 129 -87 3 -88 3 -3 1058 -2 1057 -1625 0 -1625 0 0 -1060z m3170 -40 l0
-1020 -135 0 -135 0 0 50 0 50 90 0 90 0 0 920 0 920 -1455 0 -1455 0 2 -920
3 -920 1080 -3 1080 -2 3 -47 3 -48 -1130 0 -1131 0 0 1020 0 1020 1545 0
1545 0 0 -1020z m-170 3 l0 -838 -1354 -4 c-1302 -3 -1354 -3 -1375 15 l-21
18 0 823 0 823 1375 0 1375 0 0 -837z m-182 -975 l3 -48 -200 0 -201 0 0 50 0
50 198 -2 197 -3 3 -47z m529 -178 l-2 -40 -1717 0 -1718 0 0 40 0 40 1720 0
1720 0 -3 -40z"/>
<path d="M5771 7762 c-47 -23 -72 -61 -78 -116 l-6 -46 42 0 c38 0 41 2 41 28
0 55 68 90 121 62 27 -15 49 -63 49 -110 0 -82 -57 -152 -190 -231 -98 -58
-132 -119 -100 -180 23 -41 60 -49 235 -49 l165 0 0 40 0 40 -159 0 c-206 0
-215 11 -79 92 139 82 208 179 208 291 0 82 -38 150 -102 183 -37 19 -106 18
-147 -4z"/>
<path d="M6672 7726 c-57 -26 -82 -62 -82 -120 0 -68 8 -79 52 -71 35 7 35 7
31 49 -5 37 -2 46 18 60 60 41 141 6 155 -68 11 -61 -28 -122 -108 -171 -115
-69 -148 -112 -148 -189 0 -33 6 -52 24 -73 l24 -28 181 0 181 0 0 41 0 42
-165 -2 -165 -1 0 25 c0 39 24 66 99 110 96 56 144 115 157 197 9 57 -12 119
-55 166 -36 38 -42 41 -102 44 -41 2 -76 -2 -97 -11z"/>
<path d="M6325 7654 c-5 -1 -22 -5 -36 -8 l-26 -6 15 -76 c12 -60 13 -77 3
-84 -7 -4 -47 -10 -89 -14 -41 -3 -77 -8 -80 -11 -2 -2 -1 -20 2 -40 l7 -36
67 6 c37 3 77 8 88 10 27 6 34 -15 34 -102 l0 -63 41 0 40 0 -2 83 -2 82 67
-1 66 -1 0 38 c0 44 -9 49 -89 49 l-57 0 -13 78 c-14 84 -20 101 -36 96z"/>
<path d="M7150 7521 c0 -34 3 -39 28 -45 40 -8 307 -20 324 -14 9 4 13 18 10
44 l-4 39 -106 0 c-59 0 -140 3 -179 8 l-73 7 0 -39z"/>
<path d="M7390 7384 c-8 -1 -63 -6 -122 -9 l-108 -7 0 -40 0 -41 88 6 c48 4
129 10 180 13 75 6 92 10 88 21 -4 8 -6 26 -6 39 0 22 -3 24 -52 23 -29 -1
-60 -3 -68 -5z"/>
<path d="M4460 8426 c0 -12 11 -16 46 -16 59 0 55 24 -4 28 -33 2 -42 0 -42
-12z"/>
<path d="M4630 8425 c0 -13 13 -15 85 -13 48 2 85 7 85 13 0 6 -37 11 -85 13
-72 2 -85 0 -85 -13z"/>
<path d="M8502 8290 c-36 -22 -62 -72 -62 -117 0 -35 31 -87 65 -109 l25 -16
0 -744 0 -744 40 0 40 0 0 745 0 744 29 15 c113 59 74 232 -56 243 -36 3 -56
-1 -81 -17z m114 -85 c15 -23 15 -27 0 -51 -24 -36 -76 -31 -90 8 -20 57 57
93 90 43z"/>
<path d="M1280 7975 c0 -8 9 -15 20 -15 11 0 20 7 20 15 0 8 -9 15 -20 15 -11
0 -20 -7 -20 -15z"/>
<path d="M1420 7975 c0 -13 16 -15 118 -13 153 4 151 22 -3 26 -99 2 -115 0
-115 -13z"/>
<path d="M1697 7984 c-10 -11 3 -24 24 -24 10 0 19 7 19 15 0 15 -31 21 -43 9z"/>
<path d="M1497 7804 c-16 -17 -4 -24 39 -24 32 0 44 4 42 13 -5 13 -69 22 -81
11z"/>
<path d="M1667 7804 c-18 -19 0 -24 84 -24 68 0 90 3 87 13 -5 13 -158 23
-171 11z"/>
<path d="M3903 7495 c-66 -18 -117 -50 -167 -105 -58 -65 -78 -120 -86 -235
-7 -106 0 -141 30 -162 10 -7 21 -26 25 -42 14 -65 96 -153 175 -188 44 -20
162 -22 213 -4 67 23 132 84 168 157 19 37 43 77 55 89 21 21 22 29 17 126 -2
57 -11 124 -20 149 -36 103 -130 189 -236 217 -64 16 -107 16 -174 -2z m219
-54 c95 -46 160 -140 174 -255 l7 -59 -33 19 c-36 21 -75 74 -85 117 -10 40
-19 41 -72 10 -67 -39 -166 -40 -242 0 -29 15 -54 27 -57 27 -2 0 -9 -19 -16
-42 -8 -27 -30 -60 -58 -88 l-45 -45 -3 45 c-2 25 2 63 8 85 15 53 58 118 72
109 6 -4 8 -3 5 3 -12 19 62 71 133 94 45 15 164 4 212 -20z m113 -317 c36
-27 36 -28 29 -83 -9 -80 -40 -145 -91 -192 -59 -54 -104 -72 -183 -72 -151
-1 -253 104 -273 280 -5 39 -2 44 29 68 19 15 47 45 61 68 15 23 28 44 30 46
1 2 21 -4 45 -14 59 -23 163 -22 219 2 l44 19 27 -47 c15 -26 44 -60 63 -75z
m-545 -76 c0 -18 -2 -20 -9 -8 -6 8 -7 18 -5 22 9 14 14 9 14 -14z m620 7 c0
-8 -4 -15 -10 -15 -5 0 -7 7 -4 15 4 8 8 15 10 15 2 0 4 -7 4 -15z"/>
<path d="M3787 7123 c-17 -16 -3 -23 48 -23 42 0 55 3 55 15 0 11 -12 15 -48
15 -27 0 -52 -3 -55 -7z"/>
<path d="M4100 7115 c0 -11 12 -15 50 -15 38 0 50 4 50 15 0 11 -12 15 -50 15
-38 0 -50 -4 -50 -15z"/>
<path d="M3894 6926 c-9 -22 20 -52 63 -67 46 -15 107 2 129 36 25 38 6 51
-27 19 -40 -38 -88 -38 -129 1 -26 24 -30 26 -36 11z"/>
<path d="M3234 7477 c-9 -25 0 -62 16 -62 10 0 15 10 15 34 0 36 -21 54 -31
28z"/>
<path d="M1297 7463 c-38 -43 -10 -113 46 -113 31 0 67 32 67 59 0 20 25 31
71 31 22 0 28 -7 38 -41 7 -23 15 -47 17 -53 3 -9 -18 -17 -65 -25 -81 -15
-184 -62 -255 -115 l-48 -37 -24 22 -25 23 66 66 65 66 -43 42 c-46 45 -83 56
-122 34 -11 -6 -62 -53 -112 -105 -113 -115 -118 -136 -51 -211 l41 -47 68 67
c67 67 69 67 89 49 27 -24 26 -27 -16 -82 -174 -227 -161 -561 28 -769 54 -58
61 -79 24 -70 -22 5 -36 -7 -118 -104 -51 -61 -94 -114 -96 -119 -2 -5 15 -23
36 -40 l39 -30 90 107 c108 130 108 129 93 147 -18 21 16 32 38 12 29 -25 139
-77 199 -92 72 -19 231 -19 301 -1 53 15 155 60 204 92 30 20 48 12 32 -14 -9
-14 6 -37 89 -135 l99 -119 32 29 c17 15 35 31 40 35 4 3 -36 59 -90 122 -75
90 -102 115 -116 110 -40 -12 -37 10 10 60 102 112 156 255 156 411 0 144 -37
254 -124 371 l-38 51 21 22 21 21 66 -65 66 -66 47 50 c72 77 65 101 -71 234
-82 80 -93 87 -129 87 -31 0 -49 -8 -81 -36 -23 -19 -42 -41 -42 -47 0 -6 28
-40 62 -74 l62 -63 -21 -21 -21 -21 -54 40 c-80 61 -230 122 -300 122 -22 0
-22 4 -2 63 14 42 19 47 46 47 39 0 68 -16 68 -39 0 -47 74 -67 110 -31 41 41
11 110 -48 110 -15 0 -33 -5 -39 -11 -9 -9 -29 -8 -79 1 -45 9 -100 10 -173 5
-125 -8 -145 -8 -191 0 -28 5 -39 2 -53 -12z m74 -29 c17 -21 0 -49 -32 -49
-24 0 -36 23 -25 51 7 19 40 18 57 -2z m263 -6 c-21 -69 -32 -92 -42 -96 -12
-4 -34 39 -47 91 -7 27 -7 27 45 27 49 0 51 -1 44 -22z m227 6 c17 -21 0 -49
-32 -49 -24 0 -36 23 -25 51 7 19 40 18 57 -2z m-688 -62 l27 -28 -68 -67
c-38 -37 -71 -65 -75 -62 -4 3 -5 2 -2 -2 8 -10 -16 -33 -29 -26 -6 3 -8 2 -3
-2 4 -5 -7 -24 -25 -42 -30 -31 -33 -32 -50 -16 -20 18 -25 38 -6 27 7 -4 8
-3 4 5 -4 6 -12 9 -17 6 -9 -6 -13 8 -9 35 2 22 92 110 103 103 6 -3 7 -1 4 4
-9 14 77 93 101 93 10 0 30 -13 45 -28z m993 -64 c104 -103 112 -123 68 -169
l-25 -26 -115 115 -115 115 28 29 c14 15 35 28 46 28 11 0 60 -41 113 -92z
m-441 -23 c106 -27 184 -72 266 -154 120 -119 172 -243 172 -406 0 -247 -152
-461 -389 -547 -73 -26 -225 -35 -308 -18 -97 20 -212 85 -287 160 -143 145
-199 350 -149 545 52 203 219 371 416 419 79 19 206 19 279 1z m393 -1165 c56
-67 68 -87 59 -98 -9 -12 -14 -10 -29 8 -10 12 -15 26 -12 31 3 5 1 8 -5 7 -6
-2 -36 26 -65 62 -42 49 -52 68 -44 78 13 15 6 21 96 -88z m-963 80 c9 -14
-74 -112 -87 -103 -6 3 -8 1 -5 -4 10 -16 -47 -83 -63 -73 -15 9 -13 12 74
118 61 73 70 80 81 62z"/>
<path d="M1506 7179 c-134 -22 -276 -134 -339 -266 -31 -65 -32 -74 -32 -189
0 -119 0 -121 37 -196 70 -140 195 -234 346 -259 274 -45 532 176 532 456 0
223 -169 419 -390 454 -73 12 -84 12 -154 0z m64 -99 c0 -56 3 -70 15 -70 12
0 15 15 15 71 l0 72 53 -6 c28 -3 71 -13 95 -22 l43 -17 -20 -33 c-11 -18 -17
-36 -14 -39 13 -13 30 -5 41 19 6 14 18 25 26 25 15 0 126 -106 126 -121 0 -5
-13 -15 -30 -24 -16 -9 -30 -19 -30 -24 0 -18 14 -19 42 -5 16 8 33 12 38 9
10 -6 36 -84 46 -137 l6 -38 -76 0 c-61 0 -76 -3 -76 -15 0 -12 15 -15 76 -15
l76 0 -6 -37 c-12 -65 -25 -108 -39 -127 -13 -17 -16 -17 -44 -3 -29 15 -43
14 -43 -4 0 -5 14 -15 30 -24 17 -9 30 -20 30 -25 0 -12 -118 -130 -130 -130
-4 0 -13 14 -20 30 -12 28 -29 38 -43 24 -3 -3 3 -21 14 -39 l20 -33 -43 -16
c-51 -19 -135 -36 -143 -28 -3 3 -5 36 -5 74 0 54 -3 68 -15 68 -12 0 -15 -15
-15 -74 l0 -73 -47 8 c-52 8 -133 37 -133 48 0 4 7 17 16 30 13 17 14 25 5 34
-9 9 -14 8 -21 -3 -34 -59 -33 -59 -99 7 -33 34 -61 66 -61 71 0 6 13 18 30
29 19 12 26 23 21 31 -6 10 -15 9 -40 -5 -28 -16 -33 -16 -41 -3 -13 20 -29
75 -37 128 l-6 42 77 0 c61 0 76 3 76 15 0 12 -15 15 -75 15 -72 0 -75 1 -75
24 0 35 39 156 51 156 5 0 21 -8 35 -17 22 -14 27 -14 34 -2 7 10 1 19 -20 32
-17 11 -30 23 -30 29 0 6 28 37 62 70 66 65 65 65 98 8 7 -11 12 -12 20 -4 9
9 8 18 -5 38 -10 15 -15 29 -12 33 13 13 113 42 145 43 l32 0 0 -70z"/>
<path d="M1396 6912 c-3 -5 21 -35 54 -67 58 -58 59 -58 53 -106 -5 -42 -2
-50 20 -73 67 -66 187 5 149 88 -9 21 -4 30 54 87 42 42 60 67 54 73 -7 7 -30
-9 -70 -49 -58 -58 -59 -58 -120 -59 l-61 -1 -56 58 c-58 58 -68 64 -77 49z
m226 -149 c22 -20 23 -51 1 -75 -33 -36 -83 -11 -83 42 0 46 47 65 82 33z"/>
<path d="M3157 7404 c-16 -16 -5 -24 34 -24 28 0 39 4 37 13 -5 13 -60 22 -71
11z"/>
<path d="M3277 7404 c-16 -16 -5 -24 34 -24 28 0 39 4 37 13 -5 13 -60 22 -71
11z"/>
<path d="M3234 7357 c-9 -25 0 -62 16 -62 10 0 15 10 15 34 0 36 -21 54 -31
28z"/>
<path d="M8891 7324 c-28 -20 -14 -42 17 -25 45 24 110 6 138 -37 20 -31 42
-15 24 17 -28 54 -130 79 -179 45z"/>
<path d="M8830 7249 c0 -24 23 -21 28 4 2 10 -3 17 -12 17 -10 0 -16 -9 -16
-21z"/>
<path d="M4732 7208 c4 -67 22 -65 26 2 2 40 0 50 -13 50 -13 0 -15 -10 -13
-52z"/>
<path d="M9064 7205 c-7 -17 4 -37 17 -30 12 8 12 45 -1 45 -6 0 -13 -7 -16
-15z"/>
<path d="M4612 7178 c6 -16 79 -58 90 -52 16 10 8 22 -28 43 -39 24 -68 27
-62 9z"/>
<path d="M4813 7168 c-33 -20 -40 -32 -25 -42 10 -6 92 42 92 55 0 15 -33 9
-67 -13z"/>
<path d="M8857 7133 c-13 -12 -7 -21 27 -42 54 -34 137 -23 175 22 21 26 -6
30 -43 8 -42 -26 -86 -27 -119 -1 -28 22 -31 23 -40 13z"/>
<path d="M2504 7109 c-14 -23 25 -28 223 -29 196 -1 252 7 238 31 -9 14 -452
12 -461 -2z"/>
<path d="M4787 7093 c-13 -12 -7 -21 29 -42 39 -24 68 -27 62 -8 -6 16 -83 59
-91 50z"/>
<path d="M4643 7069 c-36 -23 -43 -39 -17 -39 21 0 84 38 84 51 0 16 -34 10
-67 -12z"/>
<path d="M2712 7050 c0 -14 2 -19 5 -12 2 6 2 18 0 25 -3 6 -5 1 -5 -13z"/>
<path d="M4730 7010 c0 -38 4 -50 15 -50 11 0 15 12 15 50 0 38 -4 50 -15 50
-11 0 -15 -12 -15 -50z"/>
<path d="M2682 6991 c-43 -8 -46 -25 -4 -29 17 -2 32 -6 32 -10 0 -4 28 -5 62
-3 35 2 164 6 288 8 195 4 257 11 239 26 -7 7 -582 14 -617 8z"/>
<path d="M3673 6741 c-98 -36 -183 -111 -231 -206 -35 -72 -43 -139 -40 -345
l3 -195 588 -3 588 -2 -3 238 -3 238 -32 65 c-40 80 -121 160 -199 196 -61 28
-175 43 -196 25 -7 -5 -40 -18 -72 -27 -71 -21 -144 -16 -212 14 -57 26 -122
26 -191 2z m107 -16 c0 -2 -11 -34 -25 -71 -14 -36 -25 -70 -25 -74 0 -5 59
-28 130 -52 l130 -42 130 42 c99 33 130 47 130 60 0 9 -11 44 -25 76 -13 33
-22 62 -20 65 3 2 30 -1 60 -8 71 -16 169 -82 213 -143 63 -89 72 -133 72
-358 l0 -200 -104 0 -105 0 -3 180 c-3 176 -3 180 -28 205 -14 13 -40 27 -57
31 -29 6 -33 4 -33 -15 0 -16 6 -21 24 -21 51 0 56 -17 56 -206 l0 -174 -310
0 -310 0 0 172 c0 186 6 208 57 208 17 0 23 6 23 21 0 19 -4 21 -32 15 -68
-14 -72 -26 -78 -229 l-5 -182 -105 0 -105 0 0 210 c0 207 0 211 27 267 47
100 128 173 237 213 36 14 81 19 81 10z m100 -97 c33 -45 58 -84 55 -86 -6 -6
-165 49 -165 57 0 11 42 111 46 111 2 0 31 -37 64 -82z m318 16 l20 -50 -85
-28 c-46 -15 -86 -26 -88 -24 -2 1 24 40 58 85 34 46 64 80 68 75 4 -4 17 -30
27 -58z m-233 39 c33 -3 78 0 99 6 22 6 42 9 44 7 2 -3 -23 -41 -56 -86 l-60
-82 -54 74 c-73 99 -76 103 -52 94 10 -4 46 -10 79 -13z"/>
<path d="M9000 6600 c0 -29 4 -40 15 -40 11 0 15 11 15 40 0 29 -4 40 -15 40
-11 0 -15 -11 -15 -40z"/>
<path d="M8927 6554 c-16 -16 -5 -24 34 -24 28 0 39 4 37 13 -5 13 -60 22 -71
11z"/>
<path d="M9035 6550 c-3 -5 0 -13 9 -16 21 -8 71 -1 71 11 0 14 -72 19 -80 5z"/>
<path d="M9002 6483 c2 -21 8 -38 13 -38 6 0 11 17 13 38 3 29 0 37 -13 37
-13 0 -16 -8 -13 -37z"/>
<path d="M2565 6260 c-12 -19 10 -32 46 -28 48 4 46 32 -3 36 -20 2 -39 -2
-43 -8z"/>
<path d="M2735 6260 c-14 -23 13 -31 91 -28 62 2 79 6 79 18 0 12 -17 16 -82
18 -52 2 -84 -1 -88 -8z"/>
<path d="M2702 6128 c4 -10 36 -13 126 -13 166 0 162 19 -4 23 -99 2 -125 0
-122 -10z"/>
<path d="M3037 6134 c-13 -14 6 -24 44 -24 28 0 39 4 39 15 0 11 -11 15 -38
15 -21 0 -42 -3 -45 -6z"/>
<path d="M1734 5977 c-9 -25 0 -62 16 -62 10 0 15 10 15 34 0 36 -21 54 -31
28z"/>
<path d="M7646 5952 c-17 -4 -21 -20 -8 -37 4 -6 56 -10 120 -10 100 0 113 2
118 18 3 10 4 20 2 22 -4 4 -212 11 -232 7z"/>
<path d="M4820 5935 c0 -13 21 -15 141 -15 108 0 140 3 137 13 -3 9 -43 13
-141 15 -117 2 -137 0 -137 -13z"/>
<path d="M5180 5935 c0 -13 9 -16 43 -13 23 2 42 8 42 13 0 6 -19 11 -42 13
-34 3 -43 0 -43 -13z"/>
<path d="M7470 5935 c0 -13 9 -16 43 -13 23 2 42 8 42 13 0 6 -19 11 -42 13
-34 3 -43 0 -43 -13z"/>
<path d="M1657 5904 c-16 -16 -5 -24 34 -24 28 0 39 4 37 13 -5 13 -60 22 -71
11z"/>
<path d="M1777 5904 c-16 -16 -5 -24 34 -24 28 0 39 4 37 13 -5 13 -60 22 -71
11z"/>
<path d="M6433 5855 l-71 -54 28 -88 28 -88 59 -8 c32 -4 76 -6 98 -5 37 3 41
6 55 46 9 23 18 40 21 37 3 -2 5 10 5 28 0 17 3 43 7 57 6 23 0 30 -67 78 -41
28 -78 52 -83 51 -4 0 -40 -25 -80 -54z m143 -22 c29 -21 54 -43 54 -50 0 -12
-38 -114 -45 -122 -3 -2 -35 -5 -73 -8 l-68 -4 -18 58 c-10 32 -21 63 -23 70
-4 10 92 91 110 92 5 1 33 -16 63 -36z"/>
<path d="M7907 5903 c18 -2 50 -2 70 0 21 2 7 4 -32 4 -38 0 -55 -2 -38 -4z"/>
<path d="M1737 5864 c-11 -11 -8 -62 4 -70 15 -9 30 16 27 45 -3 25 -19 37
-31 25z"/>
<path d="M4633 5720 c0 -25 2 -35 4 -22 2 12 2 32 0 45 -2 12 -4 2 -4 -23z"/>
<path d="M7657 5754 c-16 -16 -5 -25 26 -22 17 2 31 8 30 13 -3 12 -46 19 -56
9z"/>
<path d="M7777 5754 c-19 -20 5 -24 134 -24 108 0 140 3 137 13 -5 13 -258 24
-271 11z"/>
<path d="M8130 5745 c0 -13 9 -16 43 -13 23 2 42 8 42 13 0 6 -19 11 -42 13
-34 3 -43 0 -43 -13z"/>
<path d="M4784 5725 c-10 -26 10 -37 50 -29 27 4 36 11 34 23 -4 23 -76 28
-84 6z"/>
<path d="M4914 5725 c-12 -29 16 -34 146 -29 109 5 154 14 139 28 -2 2 -66 7
-142 11 -123 6 -138 5 -143 -10z"/>
<path d="M5280 5715 c0 -13 9 -16 43 -13 23 2 42 8 42 13 0 6 -19 11 -42 13
-34 3 -43 0 -43 -13z"/>
<path d="M940 4860 l0 -760 605 0 605 0 0 760 0 760 -605 0 -605 0 0 -760z
m1178 448 l2 -278 -575 0 -575 0 0 273 c0 151 3 277 7 280 3 4 261 6 572 5
l566 -3 3 -277z m2 -718 l0 -410 -575 0 -575 0 0 403 c0 222 3 407 7 410 3 4
262 7 575 7 l568 0 0 -410z m0 -450 c0 -7 -198 -10 -575 -10 -377 0 -575 3
-575 10 0 7 198 10 575 10 377 0 575 -3 575 -10z"/>
<path d="M1020 5390 l0 -140 525 0 525 0 0 140 0 140 -525 0 -525 0 0 -140z
m1010 0 l0 -110 -485 0 -485 0 0 110 0 110 485 0 485 0 0 -110z"/>
<path d="M1278 5192 l-258 -2 0 -55 0 -55 270 0 270 0 0 54 c0 35 -4 55 -12
57 -7 2 -129 3 -270 1z m-168 -58 c0 -22 -4 -25 -27 -22 -20 2 -29 9 -31 26
-3 19 1 22 27 22 27 0 31 -4 31 -26z m80 1 c0 -20 -5 -25 -25 -25 -20 0 -25 5
-25 25 0 20 5 25 25 25 20 0 25 -5 25 -25z m90 0 c0 -21 -5 -25 -30 -25 -25 0
-30 4 -30 25 0 21 5 25 30 25 25 0 30 -4 30 -25z m80 0 c0 -20 -5 -25 -25 -25
-20 0 -25 5 -25 25 0 20 5 25 25 25 20 0 25 -5 25 -25z m88 3 c-2 -17 -11 -24
-30 -26 -24 -3 -28 0 -28 22 0 22 4 26 31 26 26 0 30 -3 27 -22z m82 -3 c0
-20 -5 -25 -25 -25 -20 0 -25 5 -25 25 0 20 5 25 25 25 20 0 25 -5 25 -25z"/>
<path d="M1870 5138 l0 -58 100 0 101 0 -3 56 -3 56 -98 1 -97 2 0 -57z m160
2 c0 -18 -7 -20 -65 -20 -58 0 -65 2 -65 20 0 18 7 20 65 20 58 0 65 -2 65
-20z"/>
<path d="M1110 4840 l0 -100 100 0 100 0 0 100 0 100 -100 0 -100 0 0 -100z
m160 5 l0 -66 -62 3 -62 3 3 55 c1 30 5 58 7 62 3 5 30 8 60 8 l54 0 0 -65z"/>
<path d="M1360 4840 l0 -100 100 0 100 0 0 100 0 100 -100 0 -100 0 0 -100z
m170 0 l0 -71 -67 3 -68 3 -3 68 -3 67 71 0 70 0 0 -70z"/>
<path d="M1612 4843 l3 -98 98 -3 97 -3 0 101 0 100 -100 0 -101 0 3 -97z
m168 2 l0 -65 -65 0 -65 0 0 65 0 65 65 0 65 0 0 -65z"/>
<path d="M1870 4840 l0 -101 98 3 97 3 3 98 3 97 -101 0 -100 0 0 -100z m160
5 l0 -65 -65 0 -65 0 0 65 0 65 65 0 65 0 0 -65z"/>
<path d="M1110 4590 l0 -100 100 0 100 0 0 100 0 100 -100 0 -100 0 0 -100z
m170 0 l0 -70 -70 0 -70 0 0 70 0 70 70 0 70 0 0 -70z"/>
<path d="M1360 4590 l0 -100 100 0 100 0 0 100 0 100 -100 0 -100 0 0 -100z
m160 0 l0 -60 -60 0 -60 0 0 60 0 60 60 0 60 0 0 -60z"/>
<path d="M1610 4590 l0 -100 100 0 100 0 0 100 0 100 -100 0 -100 0 0 -100z
m170 0 l0 -71 -67 3 -68 3 -3 54 c-5 79 -2 81 73 81 l65 0 0 -70z"/>
<path d="M1870 4465 l0 -225 100 0 100 0 0 225 0 225 -100 0 -100 0 0 -225z
m160 0 l0 -195 -65 0 -65 0 0 195 0 195 65 0 65 0 0 -195z"/>
<path d="M1110 4340 l0 -100 100 0 100 0 0 100 0 100 -100 0 -100 0 0 -100z
m160 -6 l0 -66 -61 4 -61 3 -2 63 -1 62 63 0 62 0 0 -66z"/>
<path d="M1360 4340 l0 -100 100 0 100 0 0 100 0 100 -100 0 -100 0 0 -100z
m170 0 l0 -70 -70 0 -70 0 0 63 c0 35 3 67 7 70 3 4 35 7 70 7 l63 0 0 -70z"/>
<path d="M1617 4433 c-4 -3 -7 -48 -7 -100 l0 -93 100 0 100 0 0 100 0 100
-93 0 c-52 0 -97 -3 -100 -7z m163 -93 l0 -70 -70 0 -70 0 0 63 c0 35 3 67 7
70 3 4 35 7 70 7 l63 0 0 -70z"/>
<path d="M9228 5593 c12 -2 30 -2 40 0 9 3 -1 5 -23 4 -22 0 -30 -2 -17 -4z"/>
<path d="M6518 5563 c7 -3 16 -2 19 1 4 3 -2 6 -13 5 -11 0 -14 -3 -6 -6z"/>
<path d="M6578 5563 c18 -2 45 -2 60 0 15 2 0 4 -33 4 -33 0 -45 -2 -27 -4z"/>
<path d="M9005 5533 c-147 -3 -175 -7 -159 -23 10 -10 381 -16 391 -7 3 4 3
13 0 22 -5 11 -18 14 -49 13 -24 -1 -106 -4 -183 -5z"/>
<path d="M8250 5445 c-80 -22 -159 -80 -197 -144 -18 -29 -33 -64 -35 -78 -2
-20 -13 -29 -52 -44 -103 -39 -130 -90 -130 -249 l-1 -115 41 1 c94 1 162 83
165 197 2 73 15 98 23 45 3 -18 9 -63 15 -100 12 -87 34 -130 89 -178 104 -92
270 -92 374 0 57 50 84 106 93 195 4 39 9 78 12 88 9 34 20 7 22 -55 4 -110
73 -191 165 -192 l41 -1 0 115 c0 99 -4 121 -23 157 -24 46 -62 77 -119 97
-30 10 -39 19 -44 44 -17 83 -95 165 -196 205 -64 25 -175 30 -243 12z m165
-26 c154 -28 245 -123 245 -255 l0 -57 -42 7 c-95 15 -171 80 -203 173 -19 54
-44 51 -62 -9 -29 -101 -153 -179 -259 -163 l-44 6 0 55 c0 134 116 233 296
253 6 0 37 -4 69 -10z m61 -277 c21 -18 60 -39 86 -48 46 -15 48 -17 48 -52 0
-20 -4 -63 -9 -94 -30 -183 -239 -266 -397 -157 -59 41 -89 102 -101 207 l-9
82 36 0 c86 0 210 77 240 150 l12 30 28 -43 c15 -24 45 -58 66 -75z m-466 -86
c0 -90 -3 -107 -22 -136 -25 -37 -61 -65 -95 -75 -23 -6 -23 -5 -23 95 0 107
9 137 52 177 21 20 61 41 81 42 4 1 7 -46 7 -103z m760 75 c57 -40 70 -75 70
-188 0 -103 0 -104 -22 -98 -35 10 -71 38 -95 75 -20 29 -23 46 -23 137 0 103
0 104 23 98 12 -4 33 -15 47 -24z"/>
<path d="M8160 5045 c0 -12 13 -15 60 -15 47 0 60 3 60 15 0 12 -13 15 -60 15
-47 0 -60 -3 -60 -15z"/>
<path d="M8430 5045 c0 -12 13 -15 60 -15 47 0 60 3 60 15 0 12 -13 15 -60 15
-47 0 -60 -3 -60 -15z"/>
<path d="M8264 4868 c-11 -18 52 -68 86 -68 39 0 76 18 95 46 21 33 -2 37 -38
8 -37 -31 -72 -30 -101 1 -26 28 -32 30 -42 13z"/>
<path d="M8952 5368 c3 -10 43 -14 141 -16 117 -2 137 0 137 13 0 13 -21 15
-141 15 -108 0 -140 -3 -137 -12z"/>
<path d="M8222 4685 c-162 -39 -297 -144 -375 -293 -51 -96 -67 -173 -67 -324
l0 -128 575 0 575 0 0 125 c0 181 -23 270 -101 385 -131 194 -379 291 -607
235z m258 -28 l45 -12 0 -66 c0 -55 -5 -72 -28 -107 -70 -107 -214 -107 -284
0 -23 35 -28 52 -28 107 l0 66 45 12 c25 6 81 11 125 11 44 0 100 -5 125 -11z
m-312 -184 c83 -162 293 -157 376 9 16 32 26 69 26 95 0 42 1 42 25 31 13 -6
22 -15 19 -19 -3 -5 1 -6 9 -3 33 12 209 -169 191 -197 -4 -7 -3 -9 3 -6 13 8
26 -20 16 -35 -3 -7 -1 -8 5 -4 23 14 52 -119 53 -243 l2 -116 -72 -3 -71 -3
0 33 c0 54 -28 146 -67 220 -19 37 -39 68 -43 68 -4 0 -13 -7 -20 -15 -10 -13
-10 -19 2 -33 39 -43 87 -182 88 -249 l0 -23 -356 0 -356 0 6 48 c11 78 34
144 66 195 24 39 28 52 19 63 -17 20 -34 3 -70 -68 -33 -65 -59 -156 -59 -205
l0 -33 -70 0 -70 0 0 118 c0 127 13 189 56 275 14 26 29 45 34 42 5 -3 7 1 4
9 -8 21 112 139 173 169 l48 25 6 -51 c3 -29 15 -71 27 -94z"/>
<path d="M7502 4243 c4 -52 28 -56 28 -4 0 30 -4 41 -16 41 -11 0 -14 -9 -12
-37z"/>
<path d="M3134 4227 c-9 -25 0 -62 16 -62 10 0 15 10 15 34 0 36 -21 54 -31
28z"/>
<path d="M5967 4214 c-18 -18 -1 -24 74 -24 60 0 80 3 77 13 -5 13 -139 23
-151 11z"/>
<path d="M6150 4200 c0 -17 5 -21 28 -18 16 2 27 9 27 18 0 9 -11 16 -27 18
-23 3 -28 -1 -28 -18z"/>
<path d="M7420 4186 c0 -12 11 -16 41 -16 52 0 48 24 -4 28 -28 2 -37 -1 -37
-12z"/>
<path d="M7535 4190 c-3 -5 0 -13 9 -16 21 -8 71 -1 71 11 0 14 -72 19 -80 5z"/>
<path d="M6240 4153 c0 -10 3 -35 6 -56 l7 -38 73 3 c91 4 102 22 16 26 -52 2
-63 6 -61 20 4 45 -1 62 -21 62 -12 0 -20 -7 -20 -17z"/>
<path d="M7505 4158 c-9 -22 -2 -68 10 -71 14 -3 19 63 6 76 -7 7 -12 5 -16
-5z"/>
<path d="M3057 4154 c-16 -16 -5 -24 34 -24 28 0 39 4 37 13 -5 13 -60 22 -71
11z"/>
<path d="M3177 4154 c-16 -16 -5 -24 34 -24 28 0 39 4 37 13 -5 13 -60 22 -71
11z"/>
<path d="M6141 4134 c0 -11 3 -14 6 -6 3 7 2 16 -1 19 -3 4 -6 -2 -5 -13z"/>
<path d="M3134 4107 c-9 -25 0 -62 16 -62 10 0 15 10 15 34 0 36 -21 54 -31
28z"/>
<path d="M3587 4094 c-13 -14 6 -24 44 -24 28 0 39 4 39 15 0 11 -11 15 -38
15 -21 0 -42 -3 -45 -6z"/>
<path d="M3757 4093 c-19 -18 1 -23 88 -23 78 0 95 3 95 15 0 12 -16 15 -88
15 -49 0 -92 -3 -95 -7z"/>
<path d="M6447 4084 c-14 -14 -6 -24 19 -24 16 0 24 5 22 13 -5 14 -31 21 -41
11z"/>
<path d="M6587 4083 c-19 -18 3 -23 113 -23 100 0 120 3 120 15 0 12 -19 15
-113 15 -63 0 -117 -3 -120 -7z"/>
<path d="M6867 4084 c-14 -14 -7 -25 13 -22 12 2 21 8 21 13 0 12 -24 18 -34
9z"/>
<path d="M4340 3605 l0 -435 -35 0 c-32 0 -35 -2 -35 -29 0 -17 11 -42 26 -60
l26 -31 704 0 705 0 24 25 c17 16 25 35 25 60 0 33 -2 35 -35 35 l-35 0 0 435
0 435 -685 0 -685 0 0 -435z m1340 -15 l0 -420 -225 0 c-193 0 -225 -2 -225
-15 0 -13 -29 -15 -200 -15 -169 0 -202 2 -206 15 -5 13 -40 15 -230 15 l-224
0 0 420 0 420 655 0 655 0 0 -420z m-870 -465 c10 -12 48 -15 220 -15 172 0
210 3 220 15 10 13 52 15 256 15 255 0 264 -2 227 -42 -15 -17 -50 -18 -709
-18 l-693 0 -15 22 c-9 12 -16 26 -16 30 0 5 112 8 249 8 209 0 251 -2 261
-15z"/>
<path d="M4420 3585 l0 -385 148 0 c81 0 354 0 607 0 l460 -1 0 383 0 383
-607 3 -608 2 0 -385z m1180 0 l0 -355 -575 0 -575 0 0 355 0 355 575 0 575 0
0 -355z"/>
<path d="M4700 3600 c-46 -127 -60 -174 -52 -182 15 -15 15 -14 40 52 l20 55
58 0 58 0 20 -51 c21 -51 27 -59 46 -52 8 3 -107 328 -121 343 -4 3 -34 -72
-69 -165z m84 37 c32 -77 31 -77 -13 -77 -30 0 -41 4 -41 15 0 16 30 95 36 95
2 0 10 -15 18 -33z"/>
<path d="M4940 3585 l0 -165 78 0 c87 0 112 11 132 59 15 38 7 75 -24 106 -15
15 -20 28 -15 37 5 7 9 27 9 43 -1 57 -41 85 -124 85 l-56 0 0 -165z m138 113
c17 -17 15 -48 -5 -70 -11 -12 -30 -18 -60 -18 l-43 0 0 50 0 50 48 0 c26 0
53 -5 60 -12z m20 -134 c15 -10 22 -25 22 -49 0 -46 -29 -65 -97 -65 l-53 0 0
65 0 65 53 0 c31 0 61 -6 75 -16z"/>
<path d="M5287 3736 c-70 -25 -107 -80 -107 -159 0 -81 75 -157 156 -157 58 0
95 15 88 35 -4 11 -12 14 -23 9 -120 -53 -239 73 -171 183 28 47 73 67 137 60
61 -6 75 13 22 32 -40 14 -55 13 -102 -3z"/>
<path d="M3730 3955 c0 -13 18 -15 122 -13 86 2 123 7 126 16 3 9 -26 12 -122
12 -106 0 -126 -2 -126 -15z"/>
<path d="M4063 3958 c2 -8 20 -13 42 -13 22 0 40 5 43 13 2 8 -10 12 -43 12
-33 0 -45 -4 -42 -12z"/>
<path d="M1220 3825 c0 -13 21 -15 130 -15 109 0 130 2 130 15 0 13 -21 15
-130 15 -109 0 -130 -2 -130 -15z"/>
<path d="M1883 3755 c0 -22 2 -30 4 -17 2 12 2 30 0 40 -3 9 -5 -1 -4 -23z"/>
<path d="M2475 3771 c-43 -19 -90 -68 -107 -110 -27 -69 -2 -178 52 -226 l22
-20 -118 -5 c-81 -3 -119 -9 -122 -17 -3 -10 121 -13 600 -13 389 0 616 -4
641 -11 20 -5 53 -26 72 -44 84 -85 62 -219 -45 -272 l-44 -23 -611 0 c-537 0
-612 -2 -612 -15 0 -12 20 -15 120 -15 l119 0 -35 -39 c-72 -80 -74 -188 -4
-268 66 -75 38 -73 730 -73 584 0 618 1 615 18 -3 16 -44 17 -633 22 -347 3
-631 6 -633 8 -2 1 0 6 3 12 3 5 0 7 -8 4 -20 -7 -75 59 -83 101 -14 74 10
135 70 179 27 21 41 21 654 26 587 5 627 6 630 23 3 15 -8 17 -119 17 l-122 0
27 25 c81 75 85 201 9 286 l-35 39 121 0 c114 0 121 1 121 20 0 20 -7 20 -616
20 -689 0 -662 -3 -711 71 -35 54 -40 105 -14 163 13 31 25 45 32 40 7 -4 9
-3 5 4 -3 5 9 20 27 31 33 20 47 21 653 23 580 3 619 4 622 21 3 16 -31 17
-615 17 -578 0 -621 -2 -658 -19z"/>
<path d="M2536 3730 c-104 -32 -142 -183 -62 -249 9 -7 13 -18 9 -24 -3 -6 -1
-7 5 -3 6 4 20 2 31 -3 14 -8 818 -16 1199 -11 37 0 45 27 10 32 -22 3 -23 7
-23 113 0 107 1 110 23 113 15 2 22 9 20 20 -3 16 -50 17 -593 19 -325 1 -603
-3 -619 -7z m34 -144 l0 -115 -30 11 c-44 15 -70 53 -70 103 0 57 43 110 93
114 4 1 7 -51 7 -113z m1100 84 l0 -30 -315 0 c-275 0 -314 -2 -309 -15 5 -13
50 -15 315 -15 l309 0 0 -25 0 -25 -435 0 c-380 0 -435 -2 -435 -15 0 -13 55
-15 435 -15 l435 0 0 -30 0 -30 -535 0 -535 0 0 115 0 115 535 0 535 0 0 -30z"/>
<path d="M6716 3713 c-3 -4 -6 -21 -6 -40 0 -31 -2 -33 -35 -33 l-35 0 0 -90
0 -90 35 0 35 0 0 -160 c0 -88 1 -163 3 -167 1 -5 -64 -9 -145 -11 l-148 -3 0
-89 0 -90 35 0 35 0 0 -245 0 -245 -75 0 c-60 0 -75 -3 -75 -15 0 -13 91 -15
760 -15 669 0 760 2 760 15 0 12 -15 15 -75 15 l-75 0 0 244 0 245 38 3 37 3
3 88 3 87 -151 0 -150 0 0 170 0 170 35 0 35 0 0 90 0 90 -34 0 c-33 0 -35 2
-38 38 l-3 37 -381 2 c-210 1 -384 -1 -388 -4z m744 -53 c0 -20 -7 -20 -355
-20 -348 0 -355 0 -355 20 0 20 7 20 355 20 348 0 355 0 355 -20z m70 -110 l0
-60 -430 0 -430 0 0 60 0 60 430 0 430 0 0 -60z m-72 -257 l-3 -168 -352 -3
-353 -2 0 170 0 170 355 0 355 0 -2 -167z m293 -213 c1 -5 1 -21 1 -35 0 -14
0 -36 -1 -50 l-1 -25 -650 0 -650 0 0 60 0 60 650 0 c426 0 650 -3 651 -10z
m-71 -385 l0 -245 -205 0 -205 0 0 150 0 150 -165 0 -164 0 -3 -147 -3 -148
-205 0 -205 0 -3 243 -2 242 580 0 580 0 0 -245z m-592 -107 l-3 -133 -57 -3
-58 -3 0 136 0 135 60 0 61 0 -3 -132z m142 -3 l0 -135 -55 0 -55 0 0 135 0
135 55 0 55 0 0 -135z"/>
<path d="M7043 3404 c-42 -21 -77 -91 -68 -134 26 -120 188 -144 239 -35 21
44 20 83 -4 122 -35 59 -104 78 -167 47z m124 -49 c31 -31 35 -40 30 -71 -7
-44 -23 -63 -64 -81 -28 -11 -38 -11 -67 1 -40 17 -56 42 -56 88 0 91 93 127
157 63z"/>
<path d="M7133 3329 c-25 -16 -36 -17 -58 -9 -31 12 -40 8 -32 -14 10 -26 64
-30 102 -6 19 12 35 25 35 30 0 18 -17 18 -47 -1z"/>
<path d="M6570 2770 l0 -130 163 2 162 3 0 125 0 125 -162 3 -163 2 0 -130z
m140 85 c1 -8 1 -52 1 -97 l1 -83 -56 -3 -56 -3 0 101 0 100 55 0 c42 0 55 -4
55 -15z m150 -85 l0 -100 -55 0 -55 0 0 100 0 100 55 0 55 0 0 -100z"/>
<path d="M6989 2879 c-14 -14 -18 -27 -14 -42 12 -39 34 -47 130 -47 98 0 125
12 125 57 0 41 -30 53 -128 53 -79 0 -95 -3 -113 -21z m208 -25 c9 -25 -16
-34 -99 -34 -77 0 -95 8 -84 35 8 23 174 21 183 -1z"/>
<path d="M7310 2770 l0 -130 165 0 165 0 0 130 0 130 -165 0 -165 0 0 -130z
m148 3 l-3 -98 -55 0 -55 0 -3 98 -3 97 61 0 61 0 -3 -97z m147 -3 l0 -95 -57
-3 -58 -3 0 101 0 101 58 -3 57 -3 0 -95z"/>
<path d="M1325 3699 c-4 -6 -5 -12 -4 -14 2 -1 150 -5 329 -6 303 -4 325 -3
328 14 3 16 -17 17 -322 17 -219 0 -327 -3 -331 -11z"/>
<path d="M6130 3667 c-33 -11 -52 -47 -20 -38 8 3 36 6 61 9 41 3 49 0 75 -27
29 -31 54 -40 54 -20 0 18 -69 79 -90 79 -10 0 -24 2 -32 4 -7 3 -29 0 -48 -7z"/>
<path d="M1881 3644 c0 -11 3 -14 6 -6 3 7 2 16 -1 19 -3 4 -6 -2 -5 -13z"/>
<path d="M1948 3633 c12 -2 32 -2 45 0 12 2 2 4 -23 4 -25 0 -35 -2 -22 -4z"/>
<path d="M6047 3593 c-12 -11 -7 -33 7 -33 12 0 26 20 26 36 0 7 -26 5 -33 -3z"/>
<path d="M6280 3530 c0 -11 7 -20 15 -20 8 0 15 9 15 20 0 11 -7 20 -15 20 -8
0 -15 -9 -15 -20z"/>
<path d="M7803 3518 c2 -8 20 -13 42 -13 22 0 40 5 43 13 2 8 -10 12 -43 12
-33 0 -45 -4 -42 -12z"/>
<path d="M7970 3515 c0 -13 20 -15 137 -13 98 2 138 6 141 16 3 9 -29 12 -137
12 -120 0 -141 -2 -141 -15z"/>
<path d="M8303 3518 c2 -8 20 -13 42 -13 22 0 40 5 43 13 2 8 -10 12 -43 12
-33 0 -45 -4 -42 -12z"/>
<path d="M6230 3453 c-39 -27 -88 -27 -120 2 -9 8 -22 15 -28 15 -20 0 -13
-27 11 -43 54 -35 134 -29 173 14 28 31 3 39 -36 12z"/>
<path d="M7893 3358 c2 -8 20 -13 42 -13 22 0 40 5 43 13 2 8 -10 12 -43 12
-33 0 -45 -4 -42 -12z"/>
<path d="M8035 3360 c-3 -5 0 -13 7 -15 26 -10 273 -1 271 10 -4 14 -269 19
-278 5z"/>
<path d="M8393 3358 c2 -8 20 -13 42 -13 22 0 40 5 43 13 2 8 -10 12 -43 12
-33 0 -45 -4 -42 -12z"/>
<path d="M2207 3343 c-14 -13 -6 -23 18 -23 l25 0 0 -114 c0 -110 -1 -115 -22
-118 -12 -2 -23 -9 -26 -15 -3 -10 123 -13 606 -13 l609 0 34 23 c95 63 86
203 -15 251 -30 14 -101 16 -628 16 -327 0 -598 -3 -601 -7z m1143 -138 l0
-115 -535 0 -535 0 0 30 0 31 313 -1 c275 -1 312 1 315 14 3 14 -32 16 -312
16 l-316 0 0 25 0 25 437 2 c338 2 437 6 441 16 3 9 -89 12 -437 12 l-441 0 0
30 0 30 535 0 535 0 0 -115z m120 52 c24 -39 25 -59 5 -101 -16 -34 -68 -71
-85 -61 -11 7 -14 207 -4 218 12 11 65 -24 84 -56z"/>
<path d="M1880 3060 c0 -29 4 -40 13 -37 6 2 12 19 12 37 0 18 -6 35 -12 38
-9 2 -13 -9 -13 -38z"/>
<path d="M1795 3010 c-11 -18 10 -32 41 -28 40 4 38 32 -3 36 -17 2 -34 -2
-38 -8z"/>
<path d="M1915 3010 c-11 -18 10 -32 41 -28 40 4 38 32 -3 36 -17 2 -34 -2
-38 -8z"/>
<path d="M1880 2940 c0 -29 4 -40 13 -37 6 2 12 19 12 37 0 18 -6 35 -12 38
-9 2 -13 -9 -13 -38z"/>
<path d="M2555 2970 c-39 -7 -58 -17 -87 -49 -34 -35 -38 -46 -38 -91 0 -31 8
-64 20 -87 11 -21 20 -34 20 -30 0 5 7 1 15 -7 34 -34 88 -36 676 -34 547 3
584 4 587 21 3 13 -3 17 -22 17 l-26 0 0 115 0 115 26 0 c18 0 25 5 22 17 -3
15 -49 17 -573 19 -313 2 -592 -1 -620 -6z m13 -151 c-3 -98 -4 -104 -23 -101
-11 2 -33 17 -50 33 -40 39 -42 104 -5 144 28 31 61 47 73 36 4 -4 6 -55 5
-112z m1102 91 l0 -30 -315 0 c-273 0 -315 -2 -315 -15 0 -13 42 -15 315 -15
l315 0 0 -25 0 -25 -437 -2 c-408 -3 -438 -4 -441 -20 -3 -17 23 -18 437 -18
l441 0 0 -25 0 -25 -535 0 -535 0 0 115 0 115 535 0 535 0 0 -30z"/>
<path d="M5777 2854 c-16 -17 -4 -24 39 -24 32 0 44 4 42 13 -5 13 -69 22 -81
11z"/>
<path d="M5935 2850 c-3 -5 0 -13 8 -16 24 -9 172 0 170 11 -4 14 -170 19
-178 5z"/>
<path d="M4368 2601 c-10 -15 -12 -116 -8 -517 l5 -499 739 -3 c537 -1 743 1
752 9 12 9 14 101 14 505 0 434 -2 494 -16 508 -14 14 -95 16 -744 16 -700 0
-729 -1 -742 -19z m812 -30 c0 -24 -44 -35 -100 -26 -30 5 -40 11 -40 26 0 17
8 19 70 19 62 0 70 -2 70 -19z m-170 -1 c0 -6 -26 -10 -58 -10 -32 0 -107 -9
-167 -20 -146 -27 -326 -26 -309 1 3 5 -5 5 -18 0 l-23 -8 -3 -437 -2 -436 27
-12 c47 -21 224 -15 386 12 129 21 149 22 158 10 5 -8 8 -24 7 -35 -3 -19 -12
-20 -310 -23 l-308 -2 0 485 0 485 310 0 c200 0 310 -4 310 -10z m820 -475 l0
-484 -305 -1 -305 0 0 36 0 37 63 -7 c34 -4 114 -16 177 -27 135 -25 273 -22
315 5 l25 16 0 431 c0 467 2 451 -55 429 -46 -17 -190 -13 -305 10 -58 11
-131 20 -162 20 -32 0 -58 4 -58 10 0 6 108 10 305 10 l305 0 0 -485z m-755
415 c20 -7 20 -17 21 -407 l2 -400 -102 5 c-77 3 -128 -1 -212 -17 -107 -20
-245 -27 -291 -15 l-23 6 0 402 0 402 89 -4 c63 -3 127 2 213 17 68 11 134 22
148 25 30 5 128 -4 155 -14z m380 -12 c85 -14 147 -19 213 -16 l92 5 0 -399 0
-398 -26 -10 c-42 -16 -172 -11 -294 11 -83 15 -142 20 -212 17 l-98 -4 0 403
0 402 38 6 c20 4 44 8 52 10 22 5 99 -4 235 -27z m-275 -853 l0 -35 -70 0 -70
0 0 31 c0 31 1 31 38 26 30 -5 59 -2 100 12 1 1 2 -15 2 -34z"/>
<path d="M4910 2413 c-19 -2 -80 -11 -135 -19 -108 -18 -201 -21 -252 -10 -26
6 -33 4 -33 -7 0 -38 120 -45 283 -17 117 20 236 24 286 9 8 -2 16 4 19 13 2
13 -6 18 -35 23 -63 10 -96 12 -133 8z"/>
<path d="M4785 2259 c-80 -15 -135 -19 -202 -15 -75 3 -93 2 -93 -9 0 -32 151
-37 296 -10 78 15 189 20 263 12 13 -1 26 3 28 9 11 33 -145 40 -292 13z"/>
<path d="M4765 2119 c-106 -19 -216 -21 -257 -4 -13 5 -18 2 -18 -9 0 -42 121
-47 322 -15 109 18 144 20 193 12 62 -11 89 -3 67 19 -21 21 -186 19 -307 -3z"/>
<path d="M4780 1984 c-90 -17 -201 -22 -252 -11 -31 6 -38 5 -38 -7 0 -18 58
-36 119 -36 25 0 104 10 175 21 117 19 220 22 275 8 8 -2 16 3 18 12 3 12 -5
18 -28 23 -51 10 -188 5 -269 -10z"/>
<path d="M4795 1849 c-78 -14 -139 -19 -207 -16 -76 3 -98 1 -98 -9 0 -32 151
-37 303 -9 69 12 127 16 193 13 71 -4 94 -2 94 7 0 34 -140 41 -285 14z"/>
<path d="M5163 2470 c-15 -6 -21 -15 -17 -25 4 -10 12 -14 23 -9 40 17 145 15
272 -6 174 -29 314 -21 291 17 -6 10 -22 10 -68 1 -50 -9 -81 -7 -192 11 -138
22 -270 26 -309 11z"/>
<path d="M5191 2339 c-49 -9 -56 -13 -47 -27 3 -5 44 -7 95 -4 62 3 119 -1
188 -13 151 -28 321 -23 310 8 -3 8 -31 11 -98 9 -62 -2 -136 4 -219 17 -134
22 -161 24 -229 10z"/>
<path d="M5173 2199 c-23 -7 -31 -14 -26 -25 4 -11 13 -14 29 -10 67 17 118
16 231 -3 186 -32 342 -26 327 13 -4 11 -13 12 -37 5 -50 -14 -132 -11 -257
11 -122 21 -214 24 -267 9z"/>
<path d="M5175 2063 c-27 -7 -36 -16 -27 -30 6 -10 17 -10 42 -3 52 15 115 12
246 -11 164 -29 319 -19 296 18 -6 9 -19 9 -52 2 -49 -12 -141 -5 -257 17 -71
13 -205 17 -248 7z"/>
<path d="M5197 1930 c-54 -9 -62 -14 -53 -28 3 -6 41 -8 88 -5 58 4 122 -1
214 -16 149 -24 174 -25 243 -10 32 7 48 15 45 23 -3 8 -32 11 -102 8 -61 -3
-129 2 -182 11 -118 22 -197 27 -253 17z"/>
<path d="M5182 1790 c-40 -9 -49 -17 -36 -30 7 -7 28 -7 64 0 54 10 136 4 265
-21 66 -13 204 -13 238 0 40 16 26 42 -16 30 -50 -14 -143 -10 -266 11 -117
21 -192 24 -249 10z"/>
<path d="M6827 2140 c-51 -40 -43 -126 14 -155 43 -23 75 -18 114 17 32 28 36
36 33 72 -2 23 -8 46 -13 52 -36 38 -108 45 -148 14z m83 -20 c50 -27 48 -83
-3 -105 -36 -15 -60 -7 -78 26 -15 28 6 76 34 82 12 2 23 5 25 6 2 0 12 -4 22
-9z"/>
<path d="M3834 1905 c-8 -20 4 -65 16 -65 12 0 24 45 16 65 -3 8 -10 15 -16
15 -6 0 -13 -7 -16 -15z"/>
<path d="M6206 1903 c-3 -3 -6 -21 -6 -40 0 -23 5 -33 15 -33 10 0 15 10 15
34 0 34 -11 52 -24 39z"/>
<path d="M3757 1834 c-13 -13 5 -24 39 -24 24 0 34 5 34 15 0 10 -10 15 -33
15 -19 0 -37 -3 -40 -6z"/>
<path d="M3870 1826 c0 -12 11 -16 41 -16 52 0 48 24 -4 28 -28 2 -37 -1 -37
-12z"/>
<path d="M6123 1808 c2 -7 19 -13 37 -13 18 0 35 6 38 13 2 8 -9 12 -38 12
-29 0 -40 -4 -37 -12z"/>
<path d="M6235 1810 c-3 -5 0 -13 9 -16 21 -8 71 -1 71 11 0 14 -72 19 -80 5z"/>
<path d="M3834 1797 c-9 -25 0 -62 16 -62 10 0 15 10 15 34 0 36 -21 54 -31
28z"/>
<path d="M6204 1776 c-8 -22 -1 -59 14 -64 8 -2 12 9 12 37 0 40 -15 55 -26
27z"/>
<path d="M0 400 l0 -400 5000 0 5000 0 0 400 0 400 -5000 0 -5000 0 0 -400z
m2192 123 c23 -20 23 -57 1 -74 -15 -11 -16 -11 -5 1 27 31 11 72 -33 83 -19
4 -19 5 -1 6 11 0 28 -6 38 -16z m-69 -8 c-3 -9 -8 -14 -10 -11 -3 3 -2 9 2
15 9 16 15 13 8 -4z m-1760 -114 c22 -61 43 -108 47 -104 4 4 24 56 45 116 21
59 42 107 47 107 11 0 9 -5 -42 -149 -23 -64 -44 -107 -53 -109 -15 -3 -17 0
-67 143 -15 44 -31 88 -36 99 -5 13 -3 17 6 14 8 -2 32 -55 53 -117z m517 89
c0 -23 4 -30 20 -30 11 0 20 -4 20 -10 0 -5 -10 -10 -21 -10 -20 0 -21 -4 -17
-71 3 -55 8 -74 23 -85 23 -17 14 -29 -13 -15 -11 6 -22 25 -26 42 -10 51 -7
209 4 209 6 0 10 -13 10 -30z m515 16 c25 -11 33 -19 29 -30 -7 -19 -5 -19
-40 -1 -36 18 -55 19 -78 2 -28 -21 -9 -45 49 -62 87 -25 108 -74 54 -127 -29
-29 -33 -30 -90 -25 -68 6 -72 8 -64 29 5 13 12 14 40 5 50 -15 100 1 100 33
0 16 -8 28 -25 36 -87 40 -105 51 -108 67 -14 70 53 106 133 73z m105 -16 c0
-25 4 -30 25 -30 16 0 25 -6 25 -15 0 -9 -9 -15 -25 -15 -24 0 -25 -3 -25 -60
0 -55 2 -62 25 -72 14 -6 25 -15 25 -20 0 -18 -31 -20 -55 -4 -24 16 -25 20
-25 131 0 96 3 115 15 115 10 0 15 -10 15 -30z m482 -32 l3 -62 36 32 c20 18
45 32 55 32 14 0 9 -9 -21 -40 l-39 -40 42 -60 c40 -57 41 -60 20 -60 -16 0
-32 14 -53 45 -16 25 -33 45 -37 45 -5 0 -8 -20 -8 -45 0 -38 -3 -45 -20 -45
-19 0 -20 7 -20 130 0 122 1 130 20 130 16 0 19 -8 22 -62z m193 30 c1 -20 -2
-24 -11 -17 -8 7 -14 6 -17 -3 -3 -7 -6 2 -6 20 -1 27 3 33 17 30 11 -2 17
-13 17 -30z m-44 -35 c13 -16 12 -17 -3 -4 -17 13 -22 21 -14 21 2 0 10 -8 17
-17z m-1502 -19 c12 -15 21 -40 21 -55 0 -29 0 -29 -65 -29 -72 0 -83 -12 -44
-51 17 -17 30 -20 65 -16 43 4 59 -5 28 -17 -45 -17 -106 3 -123 41 -45 98 56
206 118 127z m191 16 c17 -11 10 -13 -40 -10 -47 2 -75 -28 -75 -80 0 -55 26
-80 82 -80 27 0 42 -4 38 -10 -9 -15 -78 -12 -102 5 -50 35 -50 135 0 170 24
17 74 20 97 5z m265 -13 c20 -16 28 -35 32 -69 5 -42 3 -50 -25 -78 -41 -41
-83 -41 -124 0 -28 28 -30 36 -25 78 9 82 84 119 142 69z m85 7 c0 -14 2 -14
22 0 24 17 38 20 38 9 0 -5 -14 -16 -30 -25 -29 -17 -30 -19 -30 -93 0 -43 -4
-75 -10 -75 -6 0 -10 40 -10 100 0 60 4 100 10 100 6 0 10 -7 10 -16z m537 1
c30 -21 44 -75 32 -120 -25 -88 -143 -88 -168 0 -20 72 20 135 84 135 17 0 40
-7 52 -15z m198 -5 c0 -10 -8 -14 -27 -12 -58 6 -91 -42 -67 -100 11 -28 36
-40 74 -35 12 1 20 -4 20 -13 0 -19 -48 -25 -85 -10 -63 26 -68 148 -6 179 31
15 91 9 91 -9z m5404 -83 c8 -26 17 -47 21 -47 4 0 13 21 21 47 8 25 20 48 26
50 13 5 -22 -113 -38 -131 -12 -14 -18 -5 -45 69 -16 44 -20 65 -12 63 7 -3
19 -26 27 -51z m638 38 c2 -6 -9 -11 -23 -10 -39 0 -42 -23 -5 -36 34 -12 49
-43 31 -64 -13 -16 -38 -19 -64 -9 -27 10 -18 22 17 20 38 -1 43 19 8 37 -36
18 -48 42 -31 62 14 17 61 17 67 0z m333 -20 c0 -35 16 -47 26 -20 4 8 13 15
22 15 13 0 13 -3 -2 -19 -16 -18 -16 -21 -1 -50 9 -18 11 -31 5 -31 -6 0 -16
11 -22 25 -6 14 -15 25 -20 25 -4 0 -8 -11 -8 -25 0 -14 -4 -25 -10 -25 -6 0
-10 30 -10 70 0 40 4 70 10 70 6 0 10 -16 10 -35z m580 32 c0 -4 -34 -104 -45
-136 -3 -8 -8 -11 -11 -8 -8 7 38 147 48 147 4 0 8 -2 8 -3z m70 -57 c0 -33 4
-60 10 -60 6 0 10 -4 10 -10 0 -5 -13 -10 -30 -10 -16 0 -30 5 -30 10 0 6 5
10 10 10 6 0 10 20 10 45 0 38 -2 43 -17 38 -16 -6 -16 -4 1 15 29 34 36 27
36 -38z m112 43 c39 -35 8 -122 -44 -123 -10 0 -18 5 -18 10 0 6 9 10 20 10
10 0 24 9 31 21 9 18 8 20 -9 15 -38 -12 -68 44 -40 72 17 17 38 15 60 -5z
m128 7 c0 -5 -11 -10 -25 -10 -14 0 -29 -8 -36 -21 -9 -18 -8 -20 9 -15 12 4
28 -1 43 -13 21 -16 22 -22 11 -45 -21 -47 -92 -23 -92 31 0 27 17 64 34 75
16 11 56 10 56 -2z m98 -2 c21 -21 13 -45 -25 -77 l-38 -30 43 -1 c23 0 42 -4
42 -10 0 -5 -22 -10 -50 -10 -62 0 -65 15 -14 63 42 40 39 62 -8 53 -26 -5
-29 -4 -18 9 15 18 51 20 68 3z m122 2 c0 -5 -11 -10 -25 -10 -14 0 -29 -8
-35 -20 -10 -19 -9 -20 12 -15 36 9 65 -27 50 -60 -21 -46 -92 -21 -92 32 0
27 17 64 34 75 16 11 56 10 56 -2z m98 -2 c21 -21 13 -45 -25 -77 l-38 -30 43
-1 c23 0 42 -4 42 -10 0 -5 -22 -10 -50 -10 -62 0 -65 15 -14 63 42 40 39 62
-8 53 -26 -5 -29 -4 -18 9 15 18 51 20 68 3z m122 7 c0 -6 -60 -127 -66 -134
-2 -2 -7 -2 -10 1 -3 3 6 29 20 57 14 28 26 53 26 56 0 3 -13 5 -30 5 -16 0
-30 5 -30 10 0 6 20 10 45 10 25 0 45 -2 45 -5z m90 -5 c0 -5 -11 -10 -25 -10
-32 0 -32 -16 -1 -24 27 -7 41 -35 31 -65 -7 -23 -37 -35 -65 -26 -31 10 -24
23 13 21 28 -1 32 2 32 24 0 22 -4 25 -33 23 -26 -1 -32 2 -28 14 3 8 6 23 6
34 0 15 7 19 35 19 19 0 35 -4 35 -10z m-2050 -35 c9 -10 9 -15 1 -15 -15 0
-14 -57 2 -63 6 -2 9 -8 4 -13 -19 -20 -43 38 -38 94 1 16 16 15 31 -3z m360
0 c9 -10 9 -15 1 -15 -15 0 -14 -57 2 -63 6 -2 9 -7 6 -11 -15 -17 -37 8 -41
47 -7 58 5 74 32 42z m-532 -7 c23 -23 13 -38 -24 -38 -46 0 -41 -23 7 -30 27
-4 30 -7 16 -13 -28 -11 -44 -9 -61 9 -32 31 -14 84 29 84 12 0 26 -5 33 -12z
m117 3 c3 -5 -9 -11 -27 -13 -28 -2 -33 -7 -33 -28 0 -21 5 -26 33 -28 36 -4
34 -22 -3 -22 -28 0 -55 24 -55 50 0 37 67 69 85 41z m169 -7 c21 -20 20 -43
-1 -66 -20 -22 -46 -23 -67 -2 -31 30 -9 84 34 84 10 0 26 -7 34 -16z m86 6
c0 -4 -7 -10 -15 -14 -9 -3 -15 -19 -15 -41 0 -19 -4 -35 -10 -35 -5 0 -10 22
-10 49 0 45 2 49 25 49 14 0 25 -4 25 -8z m274 -6 c21 -20 20 -43 -1 -66 -20
-22 -46 -23 -67 -2 -31 30 -9 84 34 84 10 0 26 -7 34 -16z m113 9 c14 -6 10
-9 -17 -13 -29 -4 -35 -9 -35 -30 0 -21 5 -26 33 -28 36 -4 34 -22 -3 -22 -28
0 -55 24 -55 50 0 22 25 50 45 50 7 0 22 -3 32 -7z m250 0 c14 -6 10 -9 -17
-13 -29 -4 -35 -9 -35 -30 0 -21 5 -26 33 -28 36 -4 34 -22 -3 -22 -28 0 -55
24 -55 50 0 22 25 50 45 50 7 0 22 -3 32 -7z m107 -9 c31 -30 9 -84 -34 -84
-24 0 -50 26 -50 50 0 24 26 50 50 50 10 0 26 -7 34 -16z m113 4 c7 -5 14 -5
18 2 10 16 42 12 49 -6 10 -25 7 -84 -4 -84 -5 0 -10 18 -10 41 0 33 -3 40
-17 37 -13 -2 -19 -14 -21 -41 -4 -50 -22 -47 -22 4 0 36 -2 40 -22 37 -19 -2
-24 -10 -26 -40 -5 -55 -22 -46 -22 10 0 48 0 49 33 49 17 0 37 -4 44 -9z
m-327 -78 c0 -5 -4 -10 -10 -10 -5 0 -10 5 -10 10 0 6 5 10 10 10 6 0 10 -4
10 -10z"/>
<path d="M2150 500 c0 -5 5 -10 10 -10 6 0 10 5 10 10 0 6 -4 10 -10 10 -5 0
-10 -4 -10 -10z"/>
<path d="M536 418 c-28 -39 -21 -48 39 -48 59 0 67 9 45 51 -15 27 -64 25 -84
-3z"/>
<path d="M986 424 c-50 -50 -21 -144 44 -144 48 0 80 50 66 104 -13 53 -75 75
-110 40z"/>
<path d="M1616 408 c-32 -46 -8 -118 39 -118 28 0 55 34 55 70 0 36 -27 70
-55 70 -13 0 -31 -10 -39 -22z"/>
<path d="M8994 375 c-4 -9 -2 -21 4 -27 15 -15 44 -1 40 19 -4 23 -36 29 -44
8z"/>
<path d="M9106 331 c-11 -18 6 -42 28 -39 29 4 29 42 -1 46 -11 2 -24 -1 -27
-7z"/>
<path d="M9324 325 c-4 -9 -2 -21 4 -27 16 -16 47 -5 47 17 0 26 -42 34 -51
10z"/>
<path d="M7425 340 c-4 -6 5 -10 19 -10 14 0 26 5 26 10 0 6 -9 10 -19 10 -11
0 -23 -4 -26 -10z"/>
<path d="M7704 336 c-10 -26 4 -48 28 -44 17 2 23 10 23 28 0 18 -6 26 -23 28
-13 2 -25 -3 -28 -12z"/>
<path d="M8064 336 c-10 -26 4 -48 28 -44 17 2 23 10 23 28 0 18 -6 26 -23 28
-13 2 -25 -3 -28 -12z"/>
<path d="M8534 336 c-10 -26 4 -48 28 -44 17 2 23 10 23 28 0 18 -6 26 -23 28
-13 2 -25 -3 -28 -12z"/>
</g>
</svg>
